<mxfile host="Electron" modified="2024-09-16T12:29:20.057Z" agent="Mozilla/5.0 (Windows NT 10.0; Win64; x64) AppleWebKit/537.36 (KHTML, like Gecko) draw.io/24.4.8 Chrome/124.0.6367.207 Electron/30.0.6 Safari/537.36" etag="-j1SEh7hwdyLm8SE-hsq" version="24.4.8" type="device">
  <diagram name="第 1 页" id="ylHkwkH1ESXA_NtWmJnx">
    <mxGraphModel dx="1644" dy="957" grid="1" gridSize="10" guides="1" tooltips="1" connect="1" arrows="1" fold="1" page="1" pageScale="1" pageWidth="3300" pageHeight="4681" math="0" shadow="0">
      <root>
        <mxCell id="0" />
        <mxCell id="1" parent="0" />
        <mxCell id="5RYZkBLdxnvxbpnSPjcw-1" value="&lt;font style=&quot;font-size: 24px;&quot;&gt;8&lt;/font&gt;" style="ellipse;whiteSpace=wrap;html=1;aspect=fixed;fillColor=#60a917;fontColor=#ffffff;strokeColor=#2D7600;" vertex="1" parent="1">
          <mxGeometry x="640" y="100" width="60" height="60" as="geometry" />
        </mxCell>
        <mxCell id="5RYZkBLdxnvxbpnSPjcw-2" value="&lt;font style=&quot;font-size: 24px;&quot;&gt;3&lt;/font&gt;" style="ellipse;whiteSpace=wrap;html=1;aspect=fixed;" vertex="1" parent="1">
          <mxGeometry x="540" y="200" width="60" height="60" as="geometry" />
        </mxCell>
        <mxCell id="5RYZkBLdxnvxbpnSPjcw-4" value="&lt;font style=&quot;font-size: 24px;&quot;&gt;1&lt;/font&gt;" style="ellipse;whiteSpace=wrap;html=1;aspect=fixed;" vertex="1" parent="1">
          <mxGeometry x="450" y="290" width="60" height="60" as="geometry" />
        </mxCell>
        <mxCell id="5RYZkBLdxnvxbpnSPjcw-5" value="&lt;font style=&quot;font-size: 24px;&quot;&gt;6&lt;/font&gt;" style="ellipse;whiteSpace=wrap;html=1;aspect=fixed;" vertex="1" parent="1">
          <mxGeometry x="620" y="290" width="60" height="60" as="geometry" />
        </mxCell>
        <mxCell id="5RYZkBLdxnvxbpnSPjcw-9" value="" style="endArrow=none;html=1;rounded=0;entryX=0;entryY=1;entryDx=0;entryDy=0;exitX=1;exitY=0;exitDx=0;exitDy=0;" edge="1" parent="1" source="5RYZkBLdxnvxbpnSPjcw-2" target="5RYZkBLdxnvxbpnSPjcw-1">
          <mxGeometry width="50" height="50" relative="1" as="geometry">
            <mxPoint x="630" y="330" as="sourcePoint" />
            <mxPoint x="680" y="280" as="targetPoint" />
          </mxGeometry>
        </mxCell>
        <mxCell id="5RYZkBLdxnvxbpnSPjcw-10" value="" style="endArrow=none;html=1;rounded=0;exitX=1;exitY=0;exitDx=0;exitDy=0;entryX=0;entryY=1;entryDx=0;entryDy=0;" edge="1" parent="1" source="5RYZkBLdxnvxbpnSPjcw-4" target="5RYZkBLdxnvxbpnSPjcw-2">
          <mxGeometry width="50" height="50" relative="1" as="geometry">
            <mxPoint x="630" y="330" as="sourcePoint" />
            <mxPoint x="680" y="280" as="targetPoint" />
          </mxGeometry>
        </mxCell>
        <mxCell id="5RYZkBLdxnvxbpnSPjcw-11" value="" style="endArrow=none;html=1;rounded=0;exitX=1;exitY=1;exitDx=0;exitDy=0;entryX=0.5;entryY=0;entryDx=0;entryDy=0;" edge="1" parent="1" source="5RYZkBLdxnvxbpnSPjcw-2" target="5RYZkBLdxnvxbpnSPjcw-5">
          <mxGeometry width="50" height="50" relative="1" as="geometry">
            <mxPoint x="630" y="330" as="sourcePoint" />
            <mxPoint x="680" y="280" as="targetPoint" />
          </mxGeometry>
        </mxCell>
        <mxCell id="5RYZkBLdxnvxbpnSPjcw-15" value="&lt;font style=&quot;font-size: 24px;&quot;&gt;1&lt;/font&gt;" style="ellipse;whiteSpace=wrap;html=1;aspect=fixed;" vertex="1" parent="1">
          <mxGeometry x="400" y="500" width="60" height="60" as="geometry" />
        </mxCell>
        <mxCell id="5RYZkBLdxnvxbpnSPjcw-16" value="&lt;font style=&quot;font-size: 24px;&quot;&gt;2&lt;/font&gt;" style="ellipse;whiteSpace=wrap;html=1;aspect=fixed;" vertex="1" parent="1">
          <mxGeometry x="460" y="580" width="60" height="60" as="geometry" />
        </mxCell>
        <mxCell id="5RYZkBLdxnvxbpnSPjcw-17" value="&lt;font style=&quot;font-size: 24px;&quot;&gt;3&lt;/font&gt;" style="ellipse;whiteSpace=wrap;html=1;aspect=fixed;" vertex="1" parent="1">
          <mxGeometry x="520" y="670" width="60" height="60" as="geometry" />
        </mxCell>
        <mxCell id="5RYZkBLdxnvxbpnSPjcw-18" value="&lt;font style=&quot;font-size: 24px;&quot;&gt;4&lt;/font&gt;" style="ellipse;whiteSpace=wrap;html=1;aspect=fixed;" vertex="1" parent="1">
          <mxGeometry x="570" y="750" width="60" height="60" as="geometry" />
        </mxCell>
        <mxCell id="5RYZkBLdxnvxbpnSPjcw-19" value="&lt;font style=&quot;font-size: 24px;&quot;&gt;5&lt;/font&gt;" style="ellipse;whiteSpace=wrap;html=1;aspect=fixed;" vertex="1" parent="1">
          <mxGeometry x="620" y="830" width="60" height="60" as="geometry" />
        </mxCell>
        <mxCell id="5RYZkBLdxnvxbpnSPjcw-21" value="" style="endArrow=none;html=1;rounded=0;exitX=1;exitY=1;exitDx=0;exitDy=0;entryX=0.5;entryY=0;entryDx=0;entryDy=0;" edge="1" parent="1" source="5RYZkBLdxnvxbpnSPjcw-15" target="5RYZkBLdxnvxbpnSPjcw-16">
          <mxGeometry width="50" height="50" relative="1" as="geometry">
            <mxPoint x="710" y="710" as="sourcePoint" />
            <mxPoint x="760" y="660" as="targetPoint" />
          </mxGeometry>
        </mxCell>
        <mxCell id="5RYZkBLdxnvxbpnSPjcw-22" value="" style="endArrow=none;html=1;rounded=0;exitX=1;exitY=1;exitDx=0;exitDy=0;entryX=0.5;entryY=0;entryDx=0;entryDy=0;" edge="1" parent="1" source="5RYZkBLdxnvxbpnSPjcw-16" target="5RYZkBLdxnvxbpnSPjcw-17">
          <mxGeometry width="50" height="50" relative="1" as="geometry">
            <mxPoint x="461" y="561" as="sourcePoint" />
            <mxPoint x="479" y="599" as="targetPoint" />
          </mxGeometry>
        </mxCell>
        <mxCell id="5RYZkBLdxnvxbpnSPjcw-23" value="" style="endArrow=none;html=1;rounded=0;exitX=0.5;exitY=0;exitDx=0;exitDy=0;entryX=1;entryY=1;entryDx=0;entryDy=0;" edge="1" parent="1" source="5RYZkBLdxnvxbpnSPjcw-18" target="5RYZkBLdxnvxbpnSPjcw-17">
          <mxGeometry width="50" height="50" relative="1" as="geometry">
            <mxPoint x="471" y="571" as="sourcePoint" />
            <mxPoint x="489" y="609" as="targetPoint" />
          </mxGeometry>
        </mxCell>
        <mxCell id="5RYZkBLdxnvxbpnSPjcw-24" value="" style="endArrow=none;html=1;rounded=0;exitX=0.5;exitY=0;exitDx=0;exitDy=0;entryX=1;entryY=1;entryDx=0;entryDy=0;" edge="1" parent="1" source="5RYZkBLdxnvxbpnSPjcw-19" target="5RYZkBLdxnvxbpnSPjcw-18">
          <mxGeometry width="50" height="50" relative="1" as="geometry">
            <mxPoint x="481" y="581" as="sourcePoint" />
            <mxPoint x="499" y="619" as="targetPoint" />
          </mxGeometry>
        </mxCell>
        <mxCell id="5RYZkBLdxnvxbpnSPjcw-25" value="&lt;span style=&quot;font-size: 24px;&quot;&gt;4&lt;/span&gt;" style="ellipse;whiteSpace=wrap;html=1;aspect=fixed;" vertex="1" parent="1">
          <mxGeometry x="580" y="380" width="60" height="60" as="geometry" />
        </mxCell>
        <mxCell id="5RYZkBLdxnvxbpnSPjcw-26" value="&lt;font style=&quot;font-size: 24px;&quot;&gt;7&lt;/font&gt;" style="ellipse;whiteSpace=wrap;html=1;aspect=fixed;" vertex="1" parent="1">
          <mxGeometry x="670" y="380" width="60" height="60" as="geometry" />
        </mxCell>
        <mxCell id="5RYZkBLdxnvxbpnSPjcw-30" value="" style="endArrow=none;html=1;rounded=0;exitX=0;exitY=1;exitDx=0;exitDy=0;entryX=0.5;entryY=0;entryDx=0;entryDy=0;" edge="1" parent="1" source="5RYZkBLdxnvxbpnSPjcw-5" target="5RYZkBLdxnvxbpnSPjcw-25">
          <mxGeometry width="50" height="50" relative="1" as="geometry">
            <mxPoint x="551" y="319" as="sourcePoint" />
            <mxPoint x="589" y="271" as="targetPoint" />
          </mxGeometry>
        </mxCell>
        <mxCell id="5RYZkBLdxnvxbpnSPjcw-31" value="" style="endArrow=none;html=1;rounded=0;exitX=0.5;exitY=0;exitDx=0;exitDy=0;entryX=1;entryY=1;entryDx=0;entryDy=0;" edge="1" parent="1" source="5RYZkBLdxnvxbpnSPjcw-26" target="5RYZkBLdxnvxbpnSPjcw-5">
          <mxGeometry width="50" height="50" relative="1" as="geometry">
            <mxPoint x="561" y="329" as="sourcePoint" />
            <mxPoint x="599" y="281" as="targetPoint" />
          </mxGeometry>
        </mxCell>
        <mxCell id="5RYZkBLdxnvxbpnSPjcw-32" value="&lt;font style=&quot;font-size: 18px;&quot;&gt;删除根节点&lt;/font&gt;" style="text;html=1;align=center;verticalAlign=middle;resizable=0;points=[];autosize=1;strokeColor=none;fillColor=none;" vertex="1" parent="1">
          <mxGeometry x="450" y="110" width="110" height="40" as="geometry" />
        </mxCell>
      </root>
    </mxGraphModel>
  </diagram>
</mxfile>
